<svg width="24" height="25" viewBox="0 0 24 25" fill="none" xmlns="http://www.w3.org/2000/svg">
<g clip-path="url(#clip0)">
<path d="M17.5044 0.649414H6.49761C2.91534 0.649414 0.0010376 3.56371 0.0010376 7.14598V18.153C0.0010376 21.7351 2.91534 24.6494 6.49761 24.6494H17.5046C21.0867 24.6494 24.001 21.7351 24.001 18.153V7.14598C24.001 3.56371 21.0867 0.649414 17.5044 0.649414V0.649414ZM22.594 18.153C22.594 20.9592 20.3109 23.2424 17.5044 23.2424H6.49761C3.69115 23.2424 1.40802 20.9592 1.40802 18.153V7.14598C1.40802 4.33953 3.69115 2.05639 6.49761 2.05639H17.5046C20.3109 2.05639 22.594 4.33953 22.594 7.14598V18.153Z" fill="#2A2828"/>
<path d="M12.001 6.08716C8.3825 6.08716 5.43872 9.03094 5.43872 12.6495C5.43872 16.268 8.3825 19.2118 12.001 19.2118C15.6195 19.2118 18.5633 16.268 18.5633 12.6495C18.5633 9.03094 15.6195 6.08716 12.001 6.08716ZM12.001 17.8048C9.1585 17.8048 6.8457 15.4922 6.8457 12.6495C6.8457 9.80694 9.1585 7.49414 12.001 7.49414C14.8437 7.49414 17.1564 9.80694 17.1564 12.6495C17.1564 15.4922 14.8437 17.8048 12.001 17.8048Z" fill="#2A2828"/>
<path d="M18.7202 3.75659C17.6509 3.75659 16.7812 4.62652 16.7812 5.69568C16.7812 6.76501 17.6509 7.63494 18.7202 7.63494C19.7896 7.63494 20.6595 6.76501 20.6595 5.69568C20.6595 4.62634 19.7896 3.75659 18.7202 3.75659ZM18.7202 6.22778C18.4269 6.22778 18.1881 5.98901 18.1881 5.69568C18.1881 5.40216 18.4269 5.16357 18.7202 5.16357C19.0138 5.16357 19.2525 5.40216 19.2525 5.69568C19.2525 5.98901 19.0138 6.22778 18.7202 6.22778Z" fill="#2A2828"/>
</g>
<defs>
<clipPath id="clip0">
<rect width="24" height="24" fill="white" transform="translate(0.0010376 0.649414)"/>
</clipPath>
</defs>
</svg>
